<?xml version="1.0" standalone="no"?>
<!DOCTYPE svg PUBLIC "-//W3C//DTD SVG 20010904//EN"
 "http://www.w3.org/TR/2001/REC-SVG-20010904/DTD/svg10.dtd">
<svg version="1.0" xmlns="http://www.w3.org/2000/svg"
 width="1959.000000pt" height="1959.000000pt" viewBox="0 0 1959.000000 1959.000000"
 preserveAspectRatio="xMidYMid meet">
<metadata>
Created by potrace 1.14, written by Peter Selinger 2001-2017
</metadata>
<g transform="translate(0.000000,1959.000000) scale(0.100000,-0.100000)"
fill="#000000" stroke="none">
<path d="M10407 19583 c-1 -1 -65 -4 -141 -8 -251 -10 -394 -20 -566 -40 -25
-3 -68 -7 -96 -10 -28 -3 -61 -8 -75 -10 -13 -3 -44 -7 -69 -9 -25 -3 -74 -9
-110 -15 -36 -6 -87 -13 -115 -17 -27 -3 -53 -8 -56 -10 -3 -1 -28 -6 -55 -9
-27 -4 -56 -8 -64 -10 -8 -2 -31 -7 -50 -10 -19 -3 -69 -13 -110 -21 -41 -9
-87 -18 -103 -20 -15 -2 -31 -5 -36 -8 -4 -3 -23 -8 -42 -11 -19 -3 -41 -8
-49 -10 -8 -2 -30 -7 -48 -10 -18 -3 -129 -30 -245 -61 -260 -67 -212 -54
-407 -114 -91 -28 -169 -53 -175 -54 -5 -2 -17 -6 -25 -9 -8 -3 -31 -10 -50
-15 -63 -18 -431 -152 -570 -209 -74 -30 -173 -71 -220 -90 -191 -77 -680
-313 -885 -426 -44 -24 -109 -60 -145 -79 -280 -153 -691 -410 -980 -613
-1279 -897 -2331 -2011 -3147 -3333 -62 -101 -113 -185 -113 -187 0 -2 -26
-47 -58 -102 -32 -54 -80 -138 -107 -188 -26 -49 -60 -112 -75 -140 -38 -70
-163 -319 -193 -385 -14 -30 -57 -123 -95 -206 -128 -274 -281 -663 -392 -994
-39 -119 -140 -443 -144 -463 -1 -7 -10 -39 -20 -72 -10 -33 -20 -68 -22 -78
-2 -10 -6 -27 -9 -37 -3 -10 -7 -27 -9 -37 -2 -10 -14 -56 -26 -103 -12 -47
-24 -96 -27 -110 -2 -14 -15 -72 -28 -130 -27 -121 -52 -242 -61 -296 -3 -20
-8 -46 -10 -58 -4 -17 -28 -165 -49 -296 -2 -14 -7 -47 -10 -75 -4 -27 -8 -61
-10 -75 -6 -40 -24 -190 -30 -255 -3 -33 -7 -73 -10 -90 -2 -16 -7 -75 -10
-130 -3 -55 -8 -115 -10 -134 -6 -53 -18 -434 -18 -556 0 -118 11 -452 18
-550 8 -122 20 -268 30 -355 13 -125 17 -156 21 -182 2 -15 6 -47 9 -70 4 -38
28 -204 41 -283 16 -100 27 -159 40 -225 9 -41 18 -86 20 -100 83 -444 306
-1173 480 -1568 9 -21 20 -46 25 -57 248 -574 484 -1013 818 -1520 75 -115
272 -392 340 -480 26 -33 78 -100 116 -150 38 -49 71 -92 75 -95 3 -3 37 -43
75 -90 38 -47 75 -90 80 -96 6 -6 31 -35 56 -64 24 -29 55 -65 69 -80 14 -15
61 -68 105 -116 149 -165 538 -548 699 -687 12 -10 35 -31 51 -45 239 -214
630 -511 950 -723 116 -77 215 -143 220 -147 15 -11 285 -171 400 -237 205
-118 525 -276 895 -443 304 -137 1009 -380 1310 -452 19 -5 78 -20 130 -34 52
-14 106 -27 120 -30 14 -3 43 -10 65 -15 22 -6 56 -13 75 -16 19 -3 49 -10 65
-15 26 -8 55 -14 175 -36 14 -2 48 -9 75 -14 28 -5 64 -12 80 -15 17 -3 41 -7
55 -10 28 -6 143 -25 180 -30 31 -4 106 -15 140 -20 35 -5 174 -23 240 -30 30
-4 66 -8 80 -10 27 -4 123 -13 217 -20 32 -3 85 -7 118 -10 349 -29 859 -33
1280 -10 61 3 130 8 155 10 25 2 84 7 132 10 48 3 96 8 107 10 11 2 53 6 93 9
40 4 82 8 93 10 11 2 47 7 80 10 33 4 74 9 90 11 17 3 48 7 70 10 35 5 86 13
200 31 17 2 41 6 55 9 14 3 41 7 60 10 75 12 399 77 475 97 44 11 87 21 95 23
8 2 35 8 60 14 25 7 56 14 70 17 48 9 215 56 330 91 63 19 131 39 150 45 50
13 264 86 335 113 33 12 107 40 165 60 139 50 544 223 679 289 58 30 142 70
185 91 67 32 227 118 381 204 22 13 65 37 95 54 156 88 468 289 680 440 145
103 341 249 366 272 6 5 26 21 45 35 39 29 332 271 339 281 3 3 28 25 55 49
234 199 662 633 906 920 35 41 70 82 78 90 7 8 48 57 90 110 42 52 78 97 81
100 38 34 349 459 477 650 147 219 343 533 343 547 0 4 6 14 14 22 7 9 28 43
46 76 18 33 48 87 66 120 18 34 51 94 74 135 38 69 265 527 303 610 49 109
131 302 177 415 28 72 61 151 71 178 112 275 323 949 394 1257 2 8 15 63 29
123 14 59 28 118 30 130 2 12 14 67 26 122 31 143 50 237 55 282 2 12 6 36 10
53 4 17 8 41 10 53 2 12 10 67 19 122 8 55 18 120 21 145 3 25 7 56 10 70 2
14 7 48 10 75 3 28 8 64 10 80 5 33 13 106 20 175 2 25 7 70 11 100 6 58 8 69
19 215 11 137 13 167 21 340 10 199 10 857 0 1025 -4 69 -9 157 -11 195 -6
114 -22 316 -30 375 -3 19 -8 64 -10 100 -3 36 -7 76 -10 90 -2 14 -6 50 -10
80 -3 30 -8 71 -11 90 -2 19 -6 50 -9 68 -2 18 -6 45 -9 60 -3 15 -8 47 -11
72 -3 25 -7 54 -9 65 -2 11 -7 43 -10 70 -4 28 -9 57 -11 65 -4 15 -6 27 -20
105 -28 166 -108 538 -155 720 -12 44 -23 87 -25 95 -68 269 -211 715 -320
1000 -141 367 -348 821 -507 1109 -50 91 -102 184 -115 206 -7 11 -15 27 -19
35 -29 60 -373 603 -393 620 -3 3 -26 34 -50 70 -93 137 -390 525 -453 592 -7
7 -62 69 -123 138 -220 251 -474 506 -735 740 -40 36 -78 70 -84 75 -28 26
-323 268 -367 300 -14 11 -77 58 -140 105 -62 47 -123 92 -135 100 -12 8 -97
66 -189 128 -417 284 -876 537 -1340 739 -93 40 -179 78 -190 83 -156 69 -604
225 -835 290 -36 10 -108 30 -160 45 -152 43 -474 117 -655 150 -56 10 -160
27 -182 30 -12 2 -34 6 -50 9 -15 3 -50 8 -78 11 -27 4 -57 8 -65 10 -8 2 -46
7 -85 11 -38 3 -77 8 -85 9 -8 1 -49 6 -90 10 -41 4 -83 9 -93 11 -10 2 -57 6
-105 9 -48 3 -109 8 -137 10 -151 12 -800 27 -808 18z"/>
</g>
</svg>
