<svg xmlns="http://www.w3.org/2000/svg" viewBox="0 0 458.58 469.74"><defs><style>.cls-1{fill:#009fd7;}.cls-2{fill:#fff;}.cls-3{fill:#231f20;}</style></defs><g id="Fondo"><circle class="cls-1" cx="232.9" cy="232.22" r="219.5"/><path class="cls-2" d="M343.45,343.45a272.89,272.89,0,0,1,70.71-50.7c1.62-.88,3.32-1.57,5-2.37l5-2.34c1.67-.82,3.4-1.43,5.11-2.16l5.14-2.1c.86-.37,1.72-.7,2.6-1l2.62-.94,5.25-1.89c3.53-1.19,7.11-2.23,10.68-3.37A227.21,227.21,0,0,1,500,268.38l11.41-.59c3.8,0,7.62,0,11.45,0,3.81.21,7.65.33,11.47.65s7.64.78,11.45,1.32a201,201,0,0,1,44.67,11.8,206.14,206.14,0,0,1,76,52c21,22.63,36.4,49.86,46.07,78.41a258,258,0,0,1,13.11,88,267.54,267.54,0,0,1-4.69,43.94c-.79,3.6-1.49,7.22-2.37,10.8s-1.76,7.17-2.79,10.71-2.12,7.07-3.3,10.57l-1.83,5.23c-.63,1.73-1.17,3.51-1.91,5.2a248.92,248.92,0,0,1-46.15,76.12,227.8,227.8,0,0,1-33.38,30.75c-1.48,1.21-3.09,2.24-4.63,3.36L619.87,700c-1.55,1.14-3.2,2.09-4.81,3.13l-4.86,3.06c-1.61,1.05-3.32,1.92-5,2.86l-5,2.79c-3.37,1.85-6.87,3.44-10.32,5.13-1.72.88-3.52,1.56-5.28,2.33l-5.32,2.26c-1.76.8-3.6,1.37-5.41,2.05l-5.44,2c-.91.34-1.83.64-2.75.91l-2.77.85L557.35,729c-3.72,1-7.5,1.89-11.25,2.83A235.7,235.7,0,0,1,408.38,721.2,225.84,225.84,0,0,1,280.17,591.05a210,210,0,0,1-12.31-91,230.12,230.12,0,0,1,8.36-44.51c1.14-3.58,2.18-7.16,3.38-10.69l1.9-5.26.95-2.63c.3-.87.64-1.74,1-2.59l2.11-5.16c.73-1.7,1.35-3.44,2.17-5.11l2.35-5c.8-1.67,1.48-3.38,2.36-5A268.54,268.54,0,0,1,343.45,343.45Zm2.68,2.68A184.25,184.25,0,0,0,301.92,418c-1.17,3.31-2,6.73-3,10.08-.52,1.67-.84,3.41-1.27,5.1l-1.19,5.1c-.21.85-.38,1.71-.52,2.57l-.45,2.58-.91,5.14c-.55,3.44-.88,6.91-1.33,10.34a210.26,210.26,0,0,0-.07,41.14,236.88,236.88,0,0,0,21.06,77,215.74,215.74,0,0,0,75.2,88.59,215.08,215.08,0,0,0,34.2,18.86A205.86,205.86,0,0,0,500,701.54a215.8,215.8,0,0,0,78.16-12.85l4.69-1.79c1.57-.6,3.17-1.11,4.69-1.81l4.62-2c1.54-.68,3.12-1.28,4.6-2.05l4.55-2.19c1.51-.75,3.07-1.41,4.53-2.25l4.45-2.42c1.47-.83,3-1.56,4.42-2.48a214.1,214.1,0,0,0,33.14-23.86,201.82,201.82,0,0,0,28-30.36c2.11-2.75,4-5.67,6-8.51,1-1.41,1.87-2.93,2.8-4.39l2.73-4.45c.94-1.47,1.7-3,2.54-4.55l2.48-4.6c1.65-3.07,3-6.27,4.53-9.42.77-1.57,1.36-3.21,2-4.82l2-4.85c.7-1.6,1.18-3.29,1.76-4.93l1.69-5c.29-.82.55-1.65.78-2.5l.72-2.52,1.44-5c.86-3.39,1.55-6.82,2.34-10.23A184.92,184.92,0,0,0,713.39,500a188,188,0,0,0-20.26-80,207.85,207.85,0,0,0-21.79-34.46l-3.2-3.94-1.57-2c-.52-.67-1.05-1.32-1.62-1.94-2.25-2.51-4.42-5.07-6.71-7.53s-4.62-4.86-7-7.24-4.88-4.59-7.28-6.91a245.16,245.16,0,0,0-66.42-43.25,253.06,253.06,0,0,0-37.69-13.14c-1.62-.47-3.26-.78-4.89-1.18l-4.9-1.18-9.92-2-10-1.54L500,292.62a212.63,212.63,0,0,0-41.21.24c-3.44.45-6.91.79-10.35,1.34l-5.15.92-2.58.46c-.87.14-1.73.31-2.57.52L433,297.3c-1.7.43-3.44.75-5.11,1.28-3.35,1-6.77,1.88-10.1,3A182.47,182.47,0,0,0,346.13,346.13Z" transform="translate(-267.1 -267.78)"/></g><g id="Letras"><g id="Layer_3" data-name="Layer 3"><g id="Layer_6" data-name="Layer 6"><path class="cls-2" d="M535.09,395.73l-21,41.24-15.85,31.17a15.56,15.56,0,0,0-.69,1.61v0c-2.75,7.36-4.17,23.23-4.15,29.78.28,84.73.28,118.27.29,118.79a12.49,12.49,0,0,1-12.08,12.9h-.42a12.5,12.5,0,0,1-12.48-12.09c0-.44.42-31.38-.09-92.75l-48.15,94.68a18.56,18.56,0,0,1-33.1-16.82L502,378.91a18.56,18.56,0,1,1,33.09,16.82Z" transform="translate(-267.1 -267.78)"/><path class="cls-3" d="M611.52,597.63c-18.68,16.65-25.93,31-36.77,32.85a10.06,10.06,0,0,1-10-10s0-65.23,0-114.21c0-37.55-4.54-50.15-37.83-50.15-11.83-.07-25.53,4.53-29.3,13.63a15.56,15.56,0,0,1,.69-1.61L514.12,437a89.57,89.57,0,0,1,12.53-.85c44.58-.39,60.68,28.5,58.06,70.15,0,27.84,0,60.94,0,84.31a2.31,2.31,0,0,0,4,1.63l8.9-8.93C606.72,573.86,621.12,588.56,611.52,597.63Z" transform="translate(-267.1 -267.78)"/><path class="cls-2" d="M502.16,440.32c-5.28.13-5.26,7.85,0,8C507.43,448.19,507.42,440.46,502.16,440.32Z" transform="translate(-267.1 -267.78)"/></g></g></g></svg>